<svg width="16" height="16" viewBox="0 0 16 16" fill="none" xmlns="http://www.w3.org/2000/svg">
<path d="M7.27784 5.22646C5.42076 6.80577 3.40173 8.97753 2.002 10.6802C1.93319 10.7688 1.84732 10.8427 1.74946 10.8976C1.6516 10.9524 1.54373 10.9871 1.43223 10.9995C1.32074 11.012 1.20788 11.002 1.10033 10.97C0.992782 10.9381 0.892728 10.8849 0.806085 10.8137C0.719442 10.7424 0.647969 10.6545 0.595891 10.5551C0.543814 10.4557 0.51219 10.3469 0.502889 10.2351C0.493588 10.1233 0.506799 10.0108 0.541742 9.90419C0.576684 9.79758 0.632647 9.69907 0.706323 9.61446C2.14717 7.86144 4.23502 5.6108 6.19028 3.94841C7.16203 3.12183 8.1405 2.40602 9.01659 1.97888C9.4538 1.76657 9.91031 1.60293 10.3559 1.55594C10.8124 1.50811 11.3126 1.57944 11.738 1.90503C12.2264 2.2793 12.4639 2.79203 12.4832 3.34924C12.5 3.85861 12.3347 4.36379 12.1282 4.80855C11.7154 5.69639 10.9735 6.67989 10.2913 7.56689L10.1251 7.7834C9.47394 8.63012 8.88484 9.39628 8.524 10.0508C8.32848 10.4066 8.24456 10.6533 8.2261 10.8069C8.22199 10.835 8.22142 10.8635 8.22442 10.8917C8.30246 10.9655 8.35449 10.9781 8.40148 10.9815C8.47197 10.9865 8.59953 10.9706 8.80512 10.8824C9.24149 10.697 9.74499 10.3202 10.3769 9.84271L10.4012 9.82509C10.9752 9.39124 11.6625 8.87264 12.3506 8.58229C13.0849 8.27179 14.0021 8.15263 14.8278 8.81054C15.3003 9.18816 15.4992 9.70845 15.5 10.2371C15.5008 10.7289 15.3347 11.2173 15.1199 11.6528C14.6868 12.5289 13.9232 13.4486 13.1193 14.2232C13.0399 14.2996 12.9463 14.3597 12.8437 14.4C12.7412 14.4403 12.6317 14.46 12.5215 14.458C12.4113 14.456 12.3026 14.4323 12.2016 14.3882C12.1005 14.3442 12.0092 14.2807 11.9327 14.2013C11.8562 14.122 11.7961 14.0284 11.7558 13.9258C11.7155 13.8232 11.6958 13.7137 11.6979 13.6035C11.6999 13.4934 11.7236 13.3846 11.7676 13.2836C11.8117 13.1826 11.8752 13.0912 11.9545 13.0148C12.6896 12.3057 13.3022 11.542 13.6152 10.9085C13.773 10.5896 13.8217 10.3689 13.8217 10.2405C13.8217 10.154 13.8049 10.1415 13.7856 10.1264L13.7822 10.1238C13.6245 9.99796 13.4331 9.94677 13.0035 10.128C12.5361 10.3252 12.0133 10.7104 11.3881 11.1829L11.3159 11.2374C10.7595 11.6578 10.1033 12.1538 9.46387 12.4265C9.11729 12.5742 8.71449 12.6858 8.28484 12.6556C7.82442 12.6228 7.39085 12.4267 7.06217 12.1026C6.61322 11.6729 6.49993 11.1208 6.55867 10.6114C6.6149 10.1381 6.81965 9.66649 7.05378 9.24103C7.48008 8.46732 8.15057 7.59626 8.77659 6.78395L8.96037 6.54479C9.66947 5.62171 10.2863 4.78925 10.606 4.10113C10.7654 3.75792 10.8099 3.5347 10.8057 3.4063C10.8032 3.32574 10.7881 3.29134 10.7184 3.23847C10.7184 3.23847 10.7134 3.23344 10.6907 3.2284C10.6381 3.21896 10.5843 3.21783 10.5313 3.22504C10.3542 3.24351 10.0958 3.31987 9.7517 3.4877C9.06359 3.82337 8.21099 4.43261 7.27784 5.22646Z" fill="#161823"/>
</svg>
