<svg width="16" height="16" viewBox="0 0 16 16" fill="none" xmlns="http://www.w3.org/2000/svg">
<path d="M8.14724 0.727539C9.98818 0.727539 11.4806 2.21993 11.4806 4.06087V7.39421C11.4806 9.23514 9.98818 10.7275 8.14724 10.7275C6.30626 10.7275 4.81388 9.23514 4.81388 7.39421V4.06087C4.81388 2.21993 6.30626 0.727539 8.14724 0.727539ZM2.31418 8.80567C2.21957 8.41328 2.5367 8.06087 2.94034 8.06087C3.27744 8.06087 3.55804 8.31077 3.64752 8.63578C4.19116 10.6104 5.9998 12.0609 8.14724 12.0609C10.2946 12.0609 12.1033 10.6104 12.6469 8.63576C12.7364 8.31076 13.017 8.06087 13.3541 8.06087C13.7577 8.06087 14.0749 8.41327 13.9802 8.80565C13.3961 11.2285 11.3416 13.0781 8.81391 13.3576V14.0609C8.81391 14.4291 8.51543 14.7275 8.14724 14.7275C7.77905 14.7275 7.48058 14.4291 7.48058 14.0609V13.3576C4.95283 13.0781 2.89836 11.2285 2.31418 8.80567Z" fill="#161823"/>
</svg>
