<svg width="6" height="20" viewBox="0 0 6 20" fill="none" xmlns="http://www.w3.org/2000/svg">
<path d="M3.4945 0.817679L0.483517 8.27624C0.366301 8.56354 0.256411 8.85083 0.153847 9.13812C0.0512824 9.43278 4.24878e-07 9.72007 4.37114e-07 10C4.4935e-07 10.2799 0.0512825 10.5635 0.153847 10.8508C0.256411 11.1455 0.366301 11.4401 0.483517 11.7348L3.49451 19.1823C3.58974 19.4328 3.73993 19.6317 3.94506 19.779C4.14286 19.9263 4.36264 20 4.6044 20C5.01465 20 5.35165 19.8674 5.61538 19.6022C5.8718 19.3444 6 19.0313 6 18.663C6 18.4641 5.95604 18.2431 5.86813 18C5.78022 17.7643 5.69231 17.5543 5.6044 17.3702L2.65245 10L5.6044 2.62983C5.69231 2.44567 5.78022 2.23573 5.86813 2C5.95604 1.76427 6 1.54328 6 1.33702C6 0.968692 5.87179 0.651934 5.61538 0.38674C5.35165 0.128913 5.01465 -2.19197e-07 4.60439 -2.01264e-07C4.36264 -1.90697e-07 4.14286 0.0736646 3.94505 0.220994C3.73993 0.368324 3.58974 0.567219 3.4945 0.817679Z" fill="#3C3C43" fill-opacity="0.16"/>
</svg>
